<?xml version="1.0" encoding="UTF-8" standalone="no"?>
<!-- Created with Inkscape (http://www.inkscape.org/) -->

<svg
   xmlns:dc="http://purl.org/dc/elements/1.1/"
   xmlns:cc="http://creativecommons.org/ns#"
   xmlns:rdf="http://www.w3.org/1999/02/22-rdf-syntax-ns#"
   xmlns:svg="http://www.w3.org/2000/svg"
   xmlns="http://www.w3.org/2000/svg"
   xmlns:sodipodi="http://sodipodi.sourceforge.net/DTD/sodipodi-0.dtd"
   xmlns:inkscape="http://www.inkscape.org/namespaces/inkscape"
   width="1141"
   height="467.58231"
   id="svg2"
   version="1.1"
   inkscape:version="0.48.4 r9939"
   sodipodi:docname="resistors schematics.svg">
  <defs
     id="defs4" />
  <sodipodi:namedview
     id="base"
     pagecolor="#ffffff"
     bordercolor="#666666"
     borderopacity="1.0"
     inkscape:pageopacity="0.0"
     inkscape:pageshadow="2"
     inkscape:zoom="0.7"
     inkscape:cx="611.75964"
     inkscape:cy="197.35667"
     inkscape:document-units="px"
     inkscape:current-layer="layer1"
     showgrid="true"
     height="744.09px"
     fit-margin-top="50"
     fit-margin-left="50"
     fit-margin-right="50"
     fit-margin-bottom="50"
     inkscape:window-width="1366"
     inkscape:window-height="705"
     inkscape:window-x="-8"
     inkscape:window-y="-8"
     inkscape:window-maximized="1">
    <inkscape:grid
       type="xygrid"
       id="grid2985"
       empspacing="5"
       visible="true"
       enabled="true"
       snapvisiblegridlinesonly="true"
       originx="-529px"
       originy="-548.5166px" />
  </sodipodi:namedview>
  <metadata
     id="metadata7">
    <rdf:RDF>
      <cc:Work
         rdf:about="">
        <dc:format>image/svg+xml</dc:format>
        <dc:type
           rdf:resource="http://purl.org/dc/dcmitype/StillImage" />
        <dc:title />
      </cc:Work>
    </rdf:RDF>
  </metadata>
  <g
     inkscape:label="Capa 1"
     inkscape:groupmode="layer"
     id="layer1"
     transform="translate(40.5,-386.26104)">
    <path
       style="fill:none;stroke:#000000;stroke-width:1px;stroke-linecap:butt;stroke-linejoin:miter;stroke-opacity:1"
       d="m 730,622.36365 60,0 0,-20 80,0 0,40 -80,0 0,-20"
       id="path2993"
       inkscape:connector-curvature="0" />
    <path
       style="fill:none;stroke:#000000;stroke-width:1px;stroke-linecap:butt;stroke-linejoin:miter;stroke-opacity:1"
       d="m 870,622.36365 60,0 0,60 120,0"
       id="path2995"
       inkscape:connector-curvature="0" />
    <g
       id="g3011"
       transform="translate(-50,-10)">
      <path
         transform="translate(0,356.27362)"
         inkscape:connector-curvature="0"
         id="path2989"
         d="m 320,276.09003 60,0 0,-20 80,0 0,40 -80,0 0,-20"
         style="fill:none;stroke:#000000;stroke-width:1px;stroke-linecap:butt;stroke-linejoin:miter;stroke-opacity:1" />
      <path
         transform="translate(0,356.27362)"
         inkscape:connector-curvature="0"
         id="path2997"
         d="m 320,276.09003 0,-20 -80,0 0,40 80,0 z"
         style="fill:none;stroke:#000000;stroke-width:1px;stroke-linecap:butt;stroke-linejoin:miter;stroke-opacity:1" />
      <path
         transform="translate(0,356.27362)"
         inkscape:connector-curvature="0"
         id="path2999"
         d="m 240,276.09003 -60,0 0,60 -120,0"
         style="fill:none;stroke:#000000;stroke-width:1px;stroke-linecap:butt;stroke-linejoin:miter;stroke-opacity:1" />
      <path
         transform="translate(0,356.27362)"
         inkscape:connector-curvature="0"
         id="path3001"
         d="m 180,336.09003 0,60 60,0 0,-20 80,0 0,40 -80,0 0,-20"
         style="fill:none;stroke:#000000;stroke-width:1px;stroke-linecap:butt;stroke-linejoin:miter;stroke-opacity:1" />
      <path
         transform="translate(0,356.27362)"
         inkscape:connector-curvature="0"
         id="path3003"
         d="m 320,396.09003 60,0 0,-20 80,0 0,40 -80,0 0,-20"
         style="fill:none;stroke:#000000;stroke-width:1px;stroke-linecap:butt;stroke-linejoin:miter;stroke-opacity:1" />
    </g>
    <path
       style="fill:none;stroke:#000000;stroke-width:1px;stroke-linecap:butt;stroke-linejoin:miter;stroke-opacity:1"
       d="m 730,742.36365 60,0 0,-20 80,0 0,40 -80,0 0,-20"
       id="path3007"
       inkscape:connector-curvature="0" />
    <path
       style="fill:none;stroke:#000000;stroke-width:1px;stroke-linecap:butt;stroke-linejoin:miter;stroke-opacity:1"
       d="m 870,742.36365 60,0 0,-60 120,0"
       id="path3009"
       inkscape:connector-curvature="0" />
    <path
       style="fill:none;stroke:#000000;stroke-width:1px;stroke-linecap:butt;stroke-linejoin:miter;stroke-opacity:1"
       d="m 410,742.36365 60,0 0,-60 120,0 0,60 60,0 0,-20 80,0 0,40 -80,0 0,-20"
       id="path3018"
       inkscape:connector-curvature="0" />
    <path
       style="fill:none;stroke:#000000;stroke-width:1px;stroke-linecap:butt;stroke-linejoin:miter;stroke-opacity:1"
       d="m 410,622.36365 60,0 0,60"
       id="path3020"
       inkscape:connector-curvature="0" />
    <path
       style="fill:none;stroke:#000000;stroke-width:1px;stroke-linecap:butt;stroke-linejoin:miter;stroke-opacity:1"
       d="m 590,682.36365 0,-60 60,0 0,-20 80,0 0,40 -80,0 0,-20"
       id="path3022"
       inkscape:connector-curvature="0" />
    <path
       sodipodi:type="arc"
       style="fill:#000000;fill-opacity:1;stroke:none"
       id="path3809"
       sodipodi:cx="111"
       sodipodi:cy="115.49628"
       sodipodi:rx="9.0978479"
       sodipodi:ry="9.0978479"
       d="m 120.09785,115.49628 c 0,5.0246 -4.07325,9.09784 -9.09785,9.09784 -5.0246,0 -9.09785,-4.07324 -9.09785,-9.09784 0,-5.02461 4.07325,-9.09785 9.09785,-9.09785 5.0246,0 9.09785,4.07324 9.09785,9.09785 z"
       transform="translate(-39.439085,565.94266)" />
    <path
       sodipodi:type="arc"
       style="fill:#000000;fill-opacity:1;stroke:none"
       id="path3809-1"
       sodipodi:cx="111"
       sodipodi:cy="115.49628"
       sodipodi:rx="9.0978479"
       sodipodi:ry="9.0978479"
       d="m 120.09785,115.49628 c 0,5.0246 -4.07325,9.09784 -9.09785,9.09784 -5.0246,0 -9.09785,-4.07324 -9.09785,-9.09784 0,-5.02461 4.07325,-9.09785 9.09785,-9.09785 5.0246,0 9.09785,4.07324 9.09785,9.09785 z"
       transform="translate(420.56092,567.37123)" />
    <path
       sodipodi:type="arc"
       style="fill:#000000;fill-opacity:1;stroke:none"
       id="path3809-7"
       sodipodi:cx="111"
       sodipodi:cy="115.49628"
       sodipodi:rx="9.0978479"
       sodipodi:ry="9.0978479"
       d="m 120.09785,115.49628 c 0,5.0246 -4.07325,9.09784 -9.09785,9.09784 -5.0246,0 -9.09785,-4.07324 -9.09785,-9.09784 0,-5.02461 4.07325,-9.09785 9.09785,-9.09785 5.0246,0 9.09785,4.07324 9.09785,9.09785 z"
       transform="translate(880.56092,568.7998)" />
    <flowRoot
       xml:space="preserve"
       id="flowRoot3836"
       style="font-size:40px;font-style:normal;font-weight:normal;line-height:125%;letter-spacing:0px;word-spacing:0px;fill:#000000;fill-opacity:1;stroke:none;font-family:Sans"
       transform="translate(-40.5,551.86365)"><flowRegion
         id="flowRegion3838"><rect
           id="rect3840"
           width="106.71429"
           height="70.92485"
           x="64.285713"
           y="-140.42857" /></flowRegion><flowPara
         id="flowPara3842">V1VVVV</flowPara></flowRoot>    <flowRoot
       xml:space="preserve"
       id="flowRoot3844"
       style="font-size:40px;font-style:normal;font-weight:normal;line-height:125%;letter-spacing:0px;word-spacing:0px;fill:#000000;fill-opacity:1;stroke:none;font-family:Sans"
       transform="translate(337.65625,803.65574)"><flowRegion
         id="flowRegion3846"><rect
           id="rect3848"
           width="134.28572"
           height="81.428574"
           x="-287.14285"
           y="-174.71428" /></flowRegion><flowPara
         id="flowPara3852">V1</flowPara></flowRoot>    <flowRoot
       xml:space="preserve"
       id="flowRoot3844-4"
       style="font-size:40px;font-style:normal;font-weight:normal;line-height:125%;letter-spacing:0px;word-spacing:0px;fill:#000000;fill-opacity:1;stroke:none;font-family:Sans"
       transform="translate(797.65625,803.65574)"><flowRegion
         id="flowRegion3846-0"><rect
           id="rect3848-9"
           width="134.28572"
           height="81.428574"
           x="-287.14285"
           y="-174.71428" /></flowRegion><flowPara
         id="flowPara3852-4">V2</flowPara><flowPara
         id="flowPara3883" /></flowRoot>    <flowRoot
       xml:space="preserve"
       id="flowRoot3885"
       style="font-size:40px;font-style:normal;font-weight:normal;line-height:125%;letter-spacing:0px;word-spacing:0px;fill:#000000;fill-opacity:1;stroke:none;font-family:Sans"><flowRegion
         id="flowRegion3887"><rect
           id="rect3889"
           width="82.85714"
           height="61.42857"
           x="-67.14286"
           y="-179" /></flowRegion><flowPara
         id="flowPara3891" /></flowRoot>    <flowRoot
       xml:space="preserve"
       id="flowRoot3844-4-8"
       style="font-size:40px;font-style:normal;font-weight:normal;line-height:125%;letter-spacing:0px;word-spacing:0px;fill:#000000;fill-opacity:1;stroke:none;font-family:Sans"
       transform="translate(1259.6563,803.65574)"><flowRegion
         id="flowRegion3846-0-8"><rect
           id="rect3848-9-2"
           width="134.28572"
           height="81.428574"
           x="-287.14285"
           y="-174.71428" /></flowRegion><flowPara
         id="flowPara3925">0V</flowPara><flowPara
         id="flowPara3883-5" /></flowRoot>    <flowRoot
       xml:space="preserve"
       id="flowRoot3844-5"
       style="font-size:40px;font-style:normal;font-weight:normal;line-height:125%;letter-spacing:0px;word-spacing:0px;fill:#000000;fill-opacity:1;stroke:none;font-family:Sans"
       transform="matrix(0.7408251,0,0,0.65217399,413.23256,724.50938)"><flowRegion
         id="flowRegion3846-1"><rect
           id="rect3848-7"
           width="134.28572"
           height="81.428574"
           x="-287.14285"
           y="-174.71428" /></flowRegion><flowPara
         id="flowPara3852-1">R1.1</flowPara></flowRoot>    <flowRoot
       xml:space="preserve"
       id="flowRoot3844-5-1"
       style="font-size:40px;font-style:normal;font-weight:normal;line-height:125%;letter-spacing:0px;word-spacing:0px;fill:#000000;fill-opacity:1;stroke:none;font-family:Sans"
       transform="matrix(0.7408251,0,0,0.65217399,553.23256,724.50938)"><flowRegion
         id="flowRegion3846-1-5"><rect
           id="rect3848-7-2"
           width="134.28572"
           height="81.428574"
           x="-287.14285"
           y="-174.71428" /></flowRegion><flowPara
         id="flowPara3852-1-7">R1.3</flowPara></flowRoot>    <flowRoot
       xml:space="preserve"
       id="flowRoot3844-5-1-6"
       style="font-size:40px;font-style:normal;font-weight:normal;line-height:125%;letter-spacing:0px;word-spacing:0px;fill:#000000;fill-opacity:1;stroke:none;font-family:Sans"
       transform="matrix(0.7408251,0,0,0.65217399,413.23256,844.50938)"><flowRegion
         id="flowRegion3846-1-5-1"><rect
           id="rect3848-7-2-4"
           width="134.28572"
           height="81.428574"
           x="-287.14285"
           y="-174.71428" /></flowRegion><flowPara
         id="flowPara3852-1-7-2">R1.2</flowPara></flowRoot>    <flowRoot
       xml:space="preserve"
       id="flowRoot3844-5-1-6-3"
       style="font-size:40px;font-style:normal;font-weight:normal;line-height:125%;letter-spacing:0px;word-spacing:0px;fill:#000000;fill-opacity:1;stroke:none;font-family:Sans"
       transform="matrix(0.7408251,0,0,0.65217399,553.23256,844.50938)"><flowRegion
         id="flowRegion3846-1-5-1-2"><rect
           id="rect3848-7-2-4-2"
           width="134.28572"
           height="81.428574"
           x="-287.14285"
           y="-174.71428" /></flowRegion><flowPara
         id="flowPara3852-1-7-2-1">R1.4</flowPara></flowRoot>    <flowRoot
       xml:space="preserve"
       id="flowRoot3844-5-1-6-3-6"
       style="font-size:40px;font-style:normal;font-weight:normal;line-height:125%;letter-spacing:0px;word-spacing:0px;fill:#000000;fill-opacity:1;stroke:none;font-family:Sans"
       transform="matrix(0.7408251,0,0,0.65217399,873.23256,724.50938)"><flowRegion
         id="flowRegion3846-1-5-1-2-8"><rect
           id="rect3848-7-2-4-2-5"
           width="134.28572"
           height="81.428574"
           x="-287.14285"
           y="-174.71428" /></flowRegion><flowPara
         id="flowPara3852-1-7-2-1-7">R2.1</flowPara></flowRoot>    <flowRoot
       xml:space="preserve"
       id="flowRoot3844-5-1-6-3-6-6"
       style="font-size:40px;font-style:normal;font-weight:normal;line-height:125%;letter-spacing:0px;word-spacing:0px;fill:#000000;fill-opacity:1;stroke:none;font-family:Sans"
       transform="matrix(0.7408251,0,0,0.65217399,873.23256,844.50938)"><flowRegion
         id="flowRegion3846-1-5-1-2-8-1"><rect
           id="rect3848-7-2-4-2-5-8"
           width="134.28572"
           height="81.428574"
           x="-287.14285"
           y="-174.71428" /></flowRegion><flowPara
         id="flowPara3852-1-7-2-1-7-9">R2.2</flowPara></flowRoot>    <flowRoot
       xml:space="preserve"
       id="flowRoot3844-5-1-6-3-6-6-2"
       style="font-size:40px;font-style:normal;font-weight:normal;line-height:125%;letter-spacing:0px;word-spacing:0px;fill:#000000;fill-opacity:1;stroke:none;font-family:Sans"
       transform="matrix(0.7408251,0,0,0.65217399,1013.2326,724.50938)"><flowRegion
         id="flowRegion3846-1-5-1-2-8-1-7"><rect
           id="rect3848-7-2-4-2-5-8-9"
           width="134.28572"
           height="81.428574"
           x="-287.14285"
           y="-174.71428" /></flowRegion><flowPara
         id="flowPara3852-1-7-2-1-7-9-5">R2.3</flowPara></flowRoot>    <flowRoot
       xml:space="preserve"
       id="flowRoot3844-5-1-6-3-6-6-4"
       style="font-size:40px;font-style:normal;font-weight:normal;line-height:125%;letter-spacing:0px;word-spacing:0px;fill:#000000;fill-opacity:1;stroke:none;font-family:Sans"
       transform="matrix(0.7408251,0,0,0.65217399,1013.2326,844.50938)"><flowRegion
         id="flowRegion3846-1-5-1-2-8-1-3"><rect
           id="rect3848-7-2-4-2-5-8-1"
           width="134.28572"
           height="81.428574"
           x="-287.14285"
           y="-174.71428" /></flowRegion><flowPara
         id="flowPara3852-1-7-2-1-7-9-2">R2.4</flowPara></flowRoot>    <path
       style="fill:none;stroke:#000000;stroke-width:1;stroke-linecap:butt;stroke-linejoin:miter;stroke-miterlimit:4;stroke-opacity:1;stroke-dasharray:4, 4;stroke-dashoffset:0"
       d="m 341,70.49628 0,120"
       id="path4131"
       inkscape:connector-curvature="0"
       transform="translate(-40.5,551.86365)" />
    <flowRoot
       xml:space="preserve"
       id="flowRoot4133"
       style="font-size:40px;font-style:normal;font-weight:normal;line-height:125%;letter-spacing:0px;word-spacing:0px;fill:#000000;fill-opacity:1;stroke:none;font-family:Sans"
       transform="matrix(0.60411887,0,0,0.58891884,123.65886,620.35477)"><flowRegion
         id="flowRegion4135"><rect
           id="rect4137"
           width="187.14285"
           height="57.857143"
           x="227.85715"
           y="88.85714" /></flowRegion><flowPara
         id="flowPara4139">jumper</flowPara></flowRoot>    <path
       style="fill:none;stroke:#000000;stroke-width:1;stroke-linecap:butt;stroke-linejoin:miter;stroke-miterlimit:4;stroke-opacity:1;stroke-dasharray:4, 4;stroke-dashoffset:0"
       d="m 760.5,624.14564 0,120"
       id="path4131-3"
       inkscape:connector-curvature="0" />
    <flowRoot
       xml:space="preserve"
       id="flowRoot4133-3"
       style="font-size:40px;font-style:normal;font-weight:normal;line-height:125%;letter-spacing:0px;word-spacing:0px;fill:#000000;fill-opacity:1;stroke:none;font-family:Sans"
       transform="matrix(0.60411887,0,0,0.58891884,584.01601,615.89049)"><flowRegion
         id="flowRegion4135-4"><rect
           id="rect4137-1"
           width="187.14285"
           height="57.857143"
           x="227.85715"
           y="88.85714" /></flowRegion><flowPara
         id="flowPara4139-1">jumper</flowPara></flowRoot>    <path
       style="fill:#ee0000;fill-opacity:0.55288462999999999;stroke:none;stroke-width:1;stroke-miterlimit:4;stroke-opacity:1;stroke-dasharray:4, 4;stroke-dashoffset:0"
       id="path4254"
       d="m 341.99658,34.374836 c -5.19141,-0.23056 -10.39023,-0.155422 -15.58522,-0.154296 -4.88704,0.03716 -9.7738,0.06927 -14.66077,0.01404 -6.78301,-0.08341 -13.56607,-0.07748 -20.34935,-0.04806 -5.49142,0.04116 -10.98284,0.04539 -16.4743,0.06064 -5.07656,0.03218 -10.15295,-0.02315 -15.22948,-0.01072 -5.21924,0.02437 -10.43843,-0.01015 -15.65766,2.38e-4 -4.86199,0.02638 -9.72396,0.04908 -14.58574,-0.01045 -6.77572,-0.113285 -13.55258,-0.05253 -20.32867,-0.02018 -4.30801,0.03323 -8.61587,0.08187 -12.92393,0.107805 -3.49766,-0.241912 -6.91071,0.275575 -10.36212,0.741433 -3.52272,1.088402 -6.83703,2.575497 -10.15554,4.157186 -3.82932,1.383795 -7.37046,3.397351 -11.14559,4.901582 -0.61076,0.1959 -1.23646,0.350178 -1.83226,0.587699 -1.24093,0.494709 -2.43919,1.091058 -3.64491,1.66629 -0.59824,0.285412 -2.33912,1.247267 -1.76475,0.916424 5.44627,-3.137122 21.69535,-12.693338 16.38193,-9.336108 -6.34816,4.011022 -12.99257,7.532791 -19.48885,11.299187 35.08212,-18.038585 16.88485,-11.822436 12.82386,-6.526664 -0.53757,0.701034 -1.10223,1.862207 -1.49406,2.601383 -1.35526,2.745887 -2.98862,5.324437 -3.9344,8.249237 -0.7754,2.932707 -0.78723,5.98509 -0.82464,8.997023 -0.0205,3.517741 -0.0234,7.035523 -0.0161,10.553323 0.14147,3.481815 0.0676,6.901921 -0.67783,10.310795 -1.15768,3.188262 -2.20333,6.390363 -3.09902,9.661476 -1.13615,3.031116 -1.50725,6.229337 -1.73595,9.434011 -0.15422,3.78326 -0.0553,7.50339 -0.90667,11.21062 -0.99565,3.29326 -1.60737,6.65129 -1.90367,10.07327 -0.22774,3.37448 -0.23996,6.75754 -0.2335,10.13806 0.0276,3.77211 -0.0404,7.54358 -0.0353,11.31588 -0.069,4.31268 -10e-4,8.62601 0.0393,12.93866 0.0646,3.43622 -0.001,6.87219 -0.0114,10.30837 0.0411,3.67652 0.006,7.35221 -0.0106,11.02848 -0.014,4.15667 -0.0257,8.31276 0.007,12.46941 -0.0716,4.06918 0.0186,8.13858 0.005,12.20788 0.16823,4.73064 1.47887,9.37551 3.04745,13.81965 1.29688,3.61925 3.96684,5.23695 7.52416,6.13066 3.64121,0.7287 7.36487,0.71601 11.06107,0.73997 4.95014,0.62395 9.92785,0.98482 14.91061,1.20746 5.08971,-0.0808 10.11373,0.51448 15.17154,0.96425 6.53662,0.27919 13.02559,1.10397 19.54547,1.61127 6.28634,0.42905 12.53986,1.20159 18.8317,1.59399 4.39126,0.25194 8.79118,0.28269 13.18842,0.29172 3.88236,-0.0282 7.76444,-0.001 11.64667,0.0255 5.14457,0.009 10.28901,0.0172 15.43361,0.021 5.9505,0.0159 11.90062,0.0525 17.85108,0.0113 4.02424,-0.0374 8.04845,-0.0771 12.07282,-0.0971 4.03309,-0.0292 8.06522,0.0427 12.09724,0.12602 7.67661,0.1243 15.35518,0.0663 23.03223,0.01 4.90072,-0.008 9.80083,-0.10495 14.70152,-0.10722 4.33312,-0.008 8.66551,0.009 12.99837,0.0579 5.32787,0.0188 10.65608,10e-4 15.98398,-0.0219 4.93569,3.7e-4 9.87119,0.0209 14.80682,-0.008 4.50087,-2.5e-4 9.0017,0.004 13.50253,-0.0192 4.64395,-0.0415 9.28665,0.0305 13.9301,0.0835 7.09813,0.0749 14.19609,0.0631 21.29409,-0.0114 4.07476,-0.25041 7.90844,-1.75038 11.90592,-2.48061 4.56231,-0.8118 9.14034,-1.56746 13.74255,-2.16479 7.28793,-0.81212 14.63388,-0.67904 21.93926,-1.20451 5.39652,-0.71999 10.62636,-2.20703 15.94004,-3.32844 7.73178,-1.49196 15.18809,-3.98868 22.59865,-6.59294 6.73654,-3.31445 18.96767,-9.72097 -11.65105,6.81372 -0.43484,0.23482 0.74828,-0.64953 1.07918,-1.01659 0.76915,-0.85322 1.02658,-1.39839 1.60025,-2.37159 1.41108,-2.88767 1.47351,-6.13419 1.57518,-9.28201 0.11053,-3.79027 0.002,-7.58179 0.006,-11.37264 -0.0315,-3.49071 -0.031,-6.9812 -0.0297,-10.47194 0.38765,-3.47373 -0.30465,-6.61568 -1.38961,-9.86667 -1.26008,-3.15905 -2.2533,-6.42795 -3.09068,-9.72319 -1.08043,-3.90809 -2.23323,-7.79928 -3.12086,-11.7571 -0.83039,-4.25302 -0.82818,-8.59372 -0.90616,-12.90765 -0.0727,-4.32329 -0.0504,-8.64773 -0.033,-12.97158 0.0547,-4.57466 0.007,-9.14928 0.0277,-13.72405 0.0148,-4.62644 0.0132,-9.25314 -0.01,-13.87958 0.007,-4.243867 -0.048,-8.487403 0.005,-12.731074 0.0685,-4.201282 0.11325,-8.379207 -0.75083,-12.506271 -1.17702,-4.597625 -4.40708,-7.894538 -7.43079,-11.361012 -3.4125,-3.55384 -7.02374,-6.893006 -10.90147,-9.928198 -2.96142,-1.363672 -4.89724,-3.990157 -7.40772,-5.914302 -2.0817,-1.845199 -4.87205,-2.210157 -7.31302,-3.380054 -3.26769,-1.841553 -6.83919,-2.797825 -10.45911,-3.699199 -4.98791,-1.112559 -9.99677,-2.163233 -14.94519,-3.446334 C 457.8576,37.765217 450.14818,35.316498 442.37469,33.085515 427.5803,28.950567 412.73273,25.05671 397.76951,21.577984 380.43074,18.08563 363.32088,13.598877 346.12647,9.4819226 341.45856,8.3420905 336.74714,7.4112567 332.01989,6.5607081 c 0,0 16.80279,-11.6848843 16.80279,-11.6848843 l 0,0 c 4.49615,1.0843803 8.97454,2.2365782 13.42381,3.5021241 16.90988,4.6437604 33.91136,8.9576674 51.11197,12.3999681 15.23487,3.413214 30.41088,7.057783 45.52285,10.980613 7.95603,2.10743 15.87457,4.280112 23.95564,5.865137 4.99778,1.204432 10.03945,2.209744 15.04284,3.390744 3.73291,0.974546 7.41212,2.018822 10.8227,3.867404 2.6919,1.064985 5.53136,1.762235 7.6937,3.835425 2.3464,2.089357 4.43056,4.425361 7.21629,5.991931 3.86853,3.183402 7.43079,6.711659 10.85945,10.362154 3.3414,3.683383 6.88215,7.178365 8.2133,12.140413 0.96162,4.263671 0.99442,8.586288 0.88484,12.941682 0.054,4.24181 -0.003,8.483511 0.006,12.725527 -0.0227,4.630346 -0.0243,9.260934 -0.0117,13.891284 0.0177,4.57092 -0.0357,9.14152 0.002,13.71242 9.2e-4,4.31884 -0.0159,8.63737 -0.0115,12.95618 0.0444,4.17731 0.12186,8.37659 0.80197,12.50798 0.77517,3.96187 1.95688,7.81246 3.10411,11.6791 0.78982,3.2501 1.83599,6.4505 3.10914,9.54233 1.0991,3.45151 2.00086,6.80905 1.62786,10.48804 0.006,3.49097 0.0149,6.98183 0.0121,10.47285 0.0355,3.80992 -0.008,7.62003 0.01,11.43006 -0.0523,3.37625 0.0319,6.83531 -1.08273,10.06971 -4.36739,10.25866 -16.6152,13.71612 -26.40066,17.85995 -7.50922,2.52704 -15.11183,4.75158 -22.8441,6.49933 -5.27043,1.27184 -10.5589,2.53891 -15.98329,2.95078 -7.31742,0.39994 -14.6742,0.33778 -21.94312,1.40169 -4.69306,0.7052 -9.3401,1.63478 -14.00296,2.51081 -3.91611,0.84871 -7.79358,2.06908 -11.85039,1.92923 -7.08757,-0.0765 -14.1751,-0.0842 -21.26282,-0.0114 -4.72009,0.0523 -9.43948,0.12444 -14.16005,0.0835 -4.48324,-0.0231 -8.96649,-0.0188 -13.44978,-0.0192 -4.92819,-0.0295 -9.85624,-0.008 -14.78449,-0.008 -5.30785,-0.0232 -10.61601,-0.0406 -15.92383,-0.0219 -4.38603,0.0476 -8.77159,0.0663 -13.15786,0.0579 -4.80231,-0.002 -9.60404,-0.0995 -14.40638,-0.10721 -7.68593,-0.0579 -15.37332,-0.1131 -23.05885,0.01 -4.14767,0.0811 -8.29546,0.15459 -12.44413,0.126 -3.93518,-0.0198 -7.87019,-0.0596 -11.80523,-0.0973 -5.96107,-0.0421 -11.92182,-0.004 -17.88293,0.0122 -5.16876,0.005 -10.33732,0.0154 -15.50602,0.0337 -3.91501,0.0337 -7.83023,0.0833 -11.74533,0.0249 -4.37078,-0.0549 -8.74031,-0.18326 -13.09954,-0.5268 -6.24662,-0.53717 -12.47139,-1.31535 -18.73231,-1.67963 -6.53788,-0.53558 -13.05082,-1.36707 -19.6138,-1.57457 -5.08174,-0.40917 -10.15999,-0.75166 -15.25994,-0.82298 -4.9948,-0.31615 -9.97297,-0.86823 -14.97466,-1.05036 -3.81213,-0.0577 -7.651,-0.25105 -11.35042,-1.25481 -4.03341,-1.38701 -7.08525,-3.67535 -8.53557,-7.84458 -1.51555,-4.67711 -2.86364,-9.50148 -3.42518,-14.39 -0.014,-4.07089 0.0763,-8.1419 0.005,-12.21266 0.032,-4.15887 0.0207,-8.31718 0.007,-12.47606 -0.0167,-3.6727 -0.0516,-7.34484 -0.0104,-11.0178 -0.0103,-3.43222 -0.0758,-6.86421 -0.0115,-10.29647 0.0396,-4.3239 0.10629,-8.64859 0.031,-12.97245 -0.002,-3.75626 -0.0835,-7.51131 -0.0674,-11.26742 0.0112,-3.42965 -0.0288,-6.86295 0.16989,-10.28827 0.24919,-3.53254 0.63632,-7.0443 1.78382,-10.41898 0.1456,-0.50834 0.86654,-2.94052 0.93087,-3.49513 0.27972,-2.4117 -0.19543,-4.92107 0.0984,-7.33996 0.1962,-3.32737 0.40451,-6.69461 1.44125,-9.88676 1.22964,-3.11289 1.64073,-6.544937 3.24398,-9.542565 0.88445,-3.250015 1.1047,-6.507194 0.93439,-9.872332 -0.0107,-3.516462 -0.0537,-7.032863 -0.0514,-10.549299 0.0261,-3.156071 -0.0369,-6.343538 0.53027,-9.46013 0.74517,-3.169361 2.28384,-5.846501 3.80929,-8.686815 0.72155,-1.38767 1.19926,-2.947411 2.12971,-4.215677 5.12802,-6.989898 19.71784,-5.325629 21.96391,-13.657042 -5.43978,3.156967 -21.76559,12.616692 -16.31934,9.470903 8.97577,-5.184458 17.12923,-10.937161 26.79022,-14.365805 3.72969,-1.651275 7.39348,-3.449295 11.16026,-5.018869 3.37668,-1.548331 6.85544,-2.930345 10.52025,-3.626004 3.51251,-0.446832 7.02168,-0.699384 10.56646,-0.552429 4.20915,0.02576 8.41808,0.07457 12.62717,0.107805 6.79463,0.03286 13.58996,0.09205 20.38423,-0.02019 4.87139,-0.0577 9.74292,-0.03847 14.6145,-0.01045 5.21901,0.01044 10.43799,-0.02416 15.65701,2.38e-4 5.08636,0.01254 10.17259,-0.04289 15.25899,-0.01072 5.43582,0.01522 10.87159,0.01921 16.30737,0.06064 6.82738,0.02997 13.65452,0.0339 20.48165,-0.04806 4.87411,-0.05342 9.74797,-0.02519 14.62213,0.01404 5.33668,0.0012 10.67649,0.0694 16.00996,-0.154296 0,0 -17.15517,12.463958 -17.15517,12.463958 z"
       inkscape:connector-curvature="0"
       transform="translate(-40.5,551.86365)" />
    <path
       style="fill:#ee0000;fill-opacity:0.55288462999999999;stroke:none;stroke-width:1;stroke-miterlimit:4;stroke-opacity:1;stroke-dasharray:4, 4;stroke-dashoffset:0"
       id="path4258"
       d="m 789.13944,35.803408 c -4.07584,-0.127744 -8.1543,-0.100716 -12.23153,-0.136309 -5.42831,0.02467 -10.85648,-0.02703 -16.28471,-0.02014 -5.58264,-0.03026 -11.16509,0.03837 -16.74771,0.01184 -5.49378,-0.04722 -10.98757,0.02592 -16.48124,0.01067 -4.28937,0.01973 -8.57858,0.04294 -12.86796,0.05254 -3.85905,-0.09078 -7.65366,-0.04097 -11.47407,0.50789 -3.90518,0.637061 -7.87023,0.769364 -11.81992,0.827753 -3.14323,0.284257 -6.35885,-0.247008 -9.49533,0.06518 -0.8144,0.08106 -3.78958,0.800444 -4.5911,0.987012 -3.92572,1.021331 -7.95815,1.516322 -11.99677,1.796223 -3.8173,0.234419 -7.64221,0.111608 -11.46271,0.05918 -5.54819,0.147713 -11.13872,-0.391603 -16.66091,0.250969 -4.00465,0.842463 -7.58193,2.904893 -11.21471,4.694075 -3.56337,1.279204 -7.27643,2.003196 -10.87344,3.188837 -2.50241,1.275352 -5.3899,1.497218 -7.9113,2.695753 -1.01974,0.484725 -1.94875,1.141117 -2.93274,1.694802 5.61215,-3.212265 11.18536,-6.493525 16.83644,-9.636795 0.37452,-0.208316 -0.69989,0.505223 -0.98867,0.821872 -1.33413,1.462899 -1.7105,3.718319 -2.20226,5.556122 -0.81169,3.248254 -1.06016,6.591613 -1.19599,9.925269 -0.0856,3.194743 -0.0578,6.391078 -0.0442,9.586534 0.004,3.375992 -0.0227,6.752007 -0.0255,10.128038 -0.0426,4.031225 -0.006,8.062644 -0.0204,12.093913 0.0242,3.66149 0.0273,7.322757 0.0271,10.984244 -0.0329,4.19916 -0.0399,8.39864 -0.0535,12.59809 0.0222,4.32504 -0.008,8.64934 0.0264,12.97443 0.0246,3.34988 0.0746,6.6998 0.0439,10.04974 -0.0113,3.22875 0.006,6.45752 0.0155,9.68626 0.008,2.90571 0.009,5.81143 0.0105,8.71715 -0.0303,2.96405 -0.0694,5.91049 0.30969,8.85373 0.19173,4.46729 1.12396,8.83431 1.74503,13.24856 0.77765,3.53177 1.80111,7.0067 2.79545,10.48268 0.86555,4.09358 2.53442,7.86759 4.1277,11.70927 1.80222,4.21072 3.91803,8.26039 6.28314,12.17906 1.85436,3.40607 4.44377,6.27634 6.39414,9.62012 1.40856,3.12141 3.41418,5.89717 5.15028,8.83477 1.5627,2.54146 3.91464,3.79107 6.48952,5.03949 2.31454,1.79809 4.86463,2.5559 7.71517,2.9245 3.82511,0.33452 7.66935,0.30708 11.5054,0.29079 4.03163,-0.0273 8.0632,0.0228 12.09488,0.015 4.08752,-0.009 8.17497,-0.0276 12.26246,-0.0494 5.23873,0.15274 10.45444,-0.48454 15.67951,-0.80488 8.49823,-0.22999 16.97945,-0.23325 25.45937,-0.89125 6.03978,-0.50472 12.09135,-0.88122 18.1501,-1.04941 5.03836,-0.0867 10.07767,-0.0664 15.11648,-0.0481 6.69108,0.0378 13.38163,0.0797 20.073,0.084 7.55019,0.0222 15.10031,0.0375 22.65034,-0.0234 5.49754,-0.006 10.99495,-0.0471 16.49225,-0.0959 4.05606,0.15596 8.01852,-0.67018 12.06016,-0.89001 6.71714,-0.35918 13.44438,-0.36158 20.16874,-0.40345 7.67006,-0.0607 15.33988,0.005 23.00989,0.0101 6.86328,-0.0201 13.72612,-0.0661 20.58942,-0.0697 5.08749,0.25572 10.09714,-0.20265 15.13339,-0.81961 5.67129,-1.31957 11.39531,-2.20485 17.18527,-2.86546 4.76146,-0.38821 9.42527,-1.48483 14.13206,-2.24813 3.75134,-0.74921 7.6225,-0.5243 11.39759,-0.99128 1.95284,-0.24156 3.86492,-0.74186 5.79975,-1.10015 4.78186,-1.28875 9.59013,-2.46338 14.3927,-3.66765 2.1571,-0.70287 4.41062,-1.29471 6.45499,-2.30404 0.76366,-0.37703 1.466,-0.86728 2.20138,-1.29684 0.71799,-0.41941 2.88158,-1.66103 2.15872,-1.25007 -5.31583,3.02213 -10.62513,6.05576 -15.93769,9.08364 3.28748,-2.18523 5.68642,-5.37534 7.88861,-8.59638 2.3694,-3.45673 4.21301,-7.22368 5.5122,-11.20025 1.3209,-4.94325 1.49076,-10.08386 1.59684,-15.17019 -0.0461,-4.46734 0.1593,-8.95142 -0.17464,-13.40949 -0.46965,-4.2802 -2.09018,-8.33718 -3.6197,-12.33319 -1.26774,-3.28815 -1.74864,-6.79434 -2.60858,-10.19482 -1.01026,-4.14001 -1.83553,-8.32482 -2.59957,-12.51676 -0.54017,-3.64476 -1.56756,-7.18264 -2.05014,-10.83688 -0.41169,-4.19421 -0.38886,-8.41287 -0.44461,-12.62225 -0.034,-3.53334 -0.0991,-7.06706 -0.03,-10.60017 -0.94184,-4.9618 -1.71852,-9.88334 -2.1363,-14.928264 -0.46276,-6.159032 -0.51201,-12.336781 -0.61097,-18.50908 0.19945,-3.994695 -0.73613,-7.832746 -2.03163,-11.573813 -1.56763,-3.203688 -3.96729,-6.023074 -6.32452,-8.687894 -2.17192,-3.19272 -5.03535,-5.547654 -8.02025,-7.926997 -3.04363,-3.133768 -6.517,-3.929437 -10.24303,-5.633846 -6.06411,-1.564969 -11.88701,-3.826901 -17.80265,-5.858271 -8.59565,-2.506622 -17.35908,-4.404486 -26.21078,-5.730814 -7.13104,-1.43725 -14.38752,-1.888435 -21.59756,-2.700246 -8.22573,-1.002517 -16.44101,-1.950389 -24.71427,-2.472807 -14.29659,-1.302888 -28.59309,-2.617122 -42.89157,-3.909167 -13.87052,-1.229245 -27.70985,-2.769017 -41.54584,-4.331324 0,0 15.10264,-10.7240071 15.10264,-10.7240071 l 0,0 c 13.96552,1.4695614 27.93096,2.9741022 41.93906,3.9874841 14.59653,1.052617 29.17783,2.323162 43.78539,3.212197 8.37879,0.434383 16.67714,1.525554 25.021,2.363062 7.21681,0.652952 14.39489,1.510316 21.51406,2.901974 8.90878,1.50879 17.74716,3.443356 26.42014,5.992913 6.10268,1.991286 12.22515,3.885337 18.39041,5.66094 3.84335,1.510352 7.42684,3.254679 10.4755,6.140576 3.12495,2.428498 6.07398,4.893499 8.27874,8.238723 2.47026,2.931578 5.1895,5.81017 6.7926,9.326497 1.39318,3.956471 2.36954,8.095304 2.09573,12.318558 -0.0235,6.139092 0.0321,12.284304 0.44766,18.411592 0.43579,5.056237 1.33737,9.994734 2.52849,14.926534 0.0604,3.53872 -0.0312,7.07736 -0.0374,10.61638 -0.002,4.11925 0.0255,8.24744 0.41534,12.35157 0.45262,3.63942 1.38172,7.17791 1.90061,10.80405 0.708,4.13842 1.6045,8.24931 2.563,12.3348 0.9242,3.31881 1.4968,6.72009 2.5408,10.00351 1.515,4.20489 3.0281,8.4457 3.8403,12.85286 0.4473,4.5441 0.1064,9.12478 0.1301,13.68449 -0.109,5.22931 -0.1446,10.49784 -1.2868,15.63009 -1.0803,4.1165 -2.7611,8.1739 -5.1558,11.6876 -2.0672,3.4492 -4.55203,6.82205 -7.6363,9.41074 -9.91977,5.85434 -19.54192,13.12445 -30.87306,16.06307 -4.74272,1.1851 -9.50154,2.3113 -14.26618,3.40259 -5.74878,1.03328 -11.56798,1.19823 -17.32576,2.17416 -4.66224,0.89176 -9.34526,1.71385 -14.08559,2.06001 -5.86365,0.6945 -11.5876,1.9698 -17.38917,3.01337 -5.01444,0.53614 -10.01953,0.60637 -15.06207,0.47255 -6.79328,-0.006 -13.58601,-0.0567 -20.37923,-0.0835 -7.69438,-4.1e-4 -15.38884,0.0454 -23.08317,0.0633 -6.7727,0.0609 -13.55451,0.15152 -20.30871,0.69478 -4.08042,0.44123 -8.14507,1.09628 -12.26651,0.83108 -5.40933,-0.0491 -10.81877,-0.0901 -16.22834,-0.0959 -7.52697,-0.0624 -15.05404,-0.0453 -22.58118,-0.0275 -6.75989,5.6e-4 -13.5191,0.0368 -20.27876,0.0663 -5.04992,0.0185 -10.10051,0.0191 -15.14924,0.14313 -5.9271,0.16426 -11.84842,0.43933 -17.76329,0.86261 -8.5408,0.45958 -17.09586,0.43705 -25.63095,1.02028 -5.35083,0.38724 -10.69247,1.02456 -16.06622,0.91642 -4.04778,-0.0205 -8.09551,-0.0369 -12.14335,-0.0335 -4.07276,0.005 -8.14511,0.0801 -12.21783,0.0618 -3.91689,-0.0425 -7.84605,-0.0807 -11.74108,-0.53603 -2.95942,-0.58688 -5.56914,-1.72084 -8.07019,-3.42245 -2.90701,-1.43041 -5.3588,-3.29138 -7.08772,-6.09851 -1.76171,-2.92737 -3.7398,-5.7447 -5.14248,-8.8684 -1.91873,-3.32602 -4.4906,-6.2147 -6.27823,-9.62736 -2.47791,-3.97311 -4.44291,-8.21202 -6.35715,-12.47952 -1.73705,-3.86749 -3.56816,-7.66335 -4.38183,-11.85856 -1.07362,-3.56214 -2.15474,-7.13456 -2.90996,-10.7785 -0.57767,-4.4017 -1.38273,-8.76979 -1.83479,-13.18778 -0.46732,-3.02609 -0.64239,-6.02005 -0.50384,-9.08668 10e-4,-2.90928 0.003,-5.81856 0.0105,-8.72783 0.009,-3.23402 0.0268,-6.46807 0.0155,-9.7021 -0.0311,-3.36484 0.0199,-6.72967 0.0439,-10.09446 0.0343,-4.33404 0.004,-8.66729 0.0264,-13.00128 -0.0135,-4.18132 -0.0205,-8.36265 -0.0534,-12.54367 -1.9e-4,-3.67069 0.003,-7.34117 0.0272,-11.01187 -0.0145,-4.023277 0.0223,-8.046731 -0.0239,-12.06995 -0.007,-3.36176 -0.0396,-6.723403 -0.0526,-10.085082 10e-4,-3.227483 0.002,-6.455277 0.0702,-9.682203 0.0886,-3.459931 0.24327,-6.925774 1.0033,-10.317335 2.87493,-12.738504 4.02401,-9.191643 21.63671,-18.975898 3.5138,-1.772037 7.3633,-2.64538 11.03328,-4.038313 3.57426,-1.054027 7.27753,-1.774371 10.64246,-3.426085 3.69009,-1.8365 7.47643,-3.651676 11.64393,-4.008716 5.54876,-0.176477 11.10561,0.03237 16.65668,-0.05863 3.86051,-0.05448 7.72559,-0.09116 11.57911,-0.346721 3.94834,-0.350527 7.85324,-0.984001 11.71093,-1.905296 4.74432,-0.846699 9.51704,-0.663588 14.32099,-0.779924 3.93947,-0.180106 7.86958,-0.437665 11.77253,-1.031044 3.86661,-0.39503 7.74745,-0.328323 11.63047,-0.305638 4.24117,0.0096 8.48217,0.0327 12.72333,0.05254 5.48388,-0.01511 10.96789,0.05789 16.45188,0.01067 5.57175,-0.02613 11.14333,0.0418 16.71511,0.01184 5.44671,0.0069 10.89336,-0.04476 16.34016,-0.02014 4.2023,-0.03582 8.40571,-0.01128 12.60674,-0.136309 0,0 -17.15516,12.463959 -17.15516,12.463959 z"
       inkscape:connector-curvature="0"
       transform="translate(-40.5,551.86365)" />
    <path
       style="fill:#ee0000;fill-opacity:0.55288462999999999;stroke:none;stroke-width:1;stroke-miterlimit:4;stroke-opacity:1;stroke-dasharray:4, 4;stroke-dashoffset:0"
       id="path4264"
       d="m 244.14073,-109.37546 c 2.09718,3.72442 4.37057,7.32946 5.6778,11.435178 1.39707,4.387863 1.50584,6.178055 2.2921,10.882764 2.00278,16.230701 3.15219,32.558596 4.58325,48.848619 0.22613,2.39733 0.45227,4.794659 0.67841,7.191989 0,0 -17.32884,8.998943 -17.32884,8.998943 l 0,0 c -0.14821,-2.434125 -0.29641,-4.86825 -0.44462,-7.302375 -1.2505,-16.165402 -2.40077,-32.383948 -5.02468,-48.39513 -1.54099,-7.602176 -3.38445,-14.539496 -8.43464,-20.628825 0,0 18.00122,-11.031163 18.00122,-11.031163 z"
       inkscape:connector-curvature="0"
       transform="translate(-40.5,551.86365)" />
    <path
       style="fill:#ee0000;fill-opacity:0.55288462999999999;stroke:none;stroke-width:1;stroke-miterlimit:4;stroke-opacity:1;stroke-dasharray:4, 4;stroke-dashoffset:0"
       id="path4266"
       d="m 225.05746,-86.959422 c 1.81937,-4.35401 3.15728,-8.896203 5.03447,-13.223198 4.48941,-7.95411 15.0042,-10.84609 22.39866,-14.70762 0.31514,-0.16457 3.86244,-0.20609 4.11655,-0.21237 3.45538,0.26449 7.07361,0.62641 10.3686,1.79653 2.03638,0.72316 3.28204,1.52934 5.18033,2.58754 5.06046,3.14438 9.95357,6.49573 14.34234,10.5348 4.04802,2.968661 5.53124,6.151437 6.532,10.9372 1.11231,6.185667 -0.36625,8.935855 -5.2969,12.652122 -6.89571,3.858745 -13.68048,7.922795 -20.68713,11.576237 -1.08501,0.565753 -2.33489,0.736682 -3.51895,1.045427 -4.46522,1.16431 -9.00639,1.758281 -13.58696,2.216741 -7.30255,1.910024 -18.55264,9.584913 12.44261,-7.883963 0.1541,-0.08685 -0.49831,0.106634 -0.45236,0.277451 0.0939,0.349107 0.47634,0.545555 0.74021,0.792671 0.60211,0.563875 1.23677,1.091942 1.85515,1.637912 6.60833,5.480856 13.25189,10.899075 20.11836,16.057428 6.6972,4.770703 12.5829,10.463116 18.35485,16.27345 2.12541,1.997429 4.05421,4.184285 5.98049,6.369293 0,0 -17.78865,10.713302 -17.78865,10.713302 l 0,0 c -1.82351,-2.192118 -3.63295,-4.401976 -5.67452,-6.399625 -5.56342,-5.814486 -11.43974,-11.354365 -17.85938,-16.223304 -6.90755,-5.274073 -13.86398,-10.476965 -20.7177,-15.819986 -1.27907,-1.057337 -3.14126,-2.335147 -3.88155,-3.938336 -3.52727,-7.638694 15.41797,-12.754881 23.4561,-14.161562 3.22097,-0.346605 6.41597,-0.744749 9.57422,-1.495822 7.48136,-1.779165 20.3592,-8.891411 -7.62057,6.489439 4.63221,-2.633719 7.13467,-4.666678 6.14541,-10.34346 -0.79377,-4.416681 -2.1653,-7.026101 -5.77224,-9.845237 -4.26724,-3.888509 -8.89577,-7.326977 -13.94929,-10.14069 -4.71889,-2.268448 -9.71658,-3.685228 -15.01363,-3.327628 -0.78331,0.1172 -1.57693,0.17902 -2.34993,0.35161 -0.54211,0.12105 -2.05528,0.81545 -1.58113,0.52612 5.53722,-3.37886 11.22905,-6.49822 16.80367,-9.81503 0.40901,-0.24336 -0.89212,0.34524 -1.29997,0.59054 -1.24574,0.74926 -1.39293,1.13251 -2.33459,2.2658 -2.22246,4.0136 -3.42801,8.53983 -4.91853,12.857338 0,0 -19.14004,8.98888 -19.14004,8.98888 z"
       inkscape:connector-curvature="0"
       transform="translate(-40.5,551.86365)" />
    <path
       style="fill:#ee0000;fill-opacity:0.55288462999999999;stroke:none;stroke-width:1;stroke-miterlimit:4;stroke-opacity:1;stroke-dasharray:4, 4;stroke-dashoffset:0"
       id="path4270"
       d="m 330.85552,-108.49227 c -0.0611,6.07991 -1.45819,11.916716 -3.62477,17.558929 -1.84991,4.334208 -3.37251,8.751662 -5.84918,12.773831 -1.813,2.909724 -4.27353,5.302507 -6.16631,8.147962 -0.29478,0.58542 -0.58956,1.170841 -0.88434,1.756261 0,0 -19.0067,8.685274 -19.0067,8.685274 l 0,0 c 0.26481,-0.647284 0.52961,-1.294567 0.79442,-1.941851 1.5698,-3.121018 3.89765,-5.550132 6.12164,-8.210281 0.7004,-1.094116 1.48688,-2.133721 2.14669,-3.25279 1.73319,-2.939605 2.48182,-6.383842 4.18521,-9.34683 2.28389,-5.244643 3.92751,-10.769335 3.42944,-16.563959 0,0 18.8539,-9.606546 18.8539,-9.606546 z"
       inkscape:connector-curvature="0"
       transform="translate(-40.5,551.86365)" />
    <path
       style="fill:#ee0000;fill-opacity:0.55288462999999999;stroke:none;stroke-width:1;stroke-miterlimit:4;stroke-opacity:1;stroke-dasharray:4, 4;stroke-dashoffset:0"
       id="path4272"
       d="m 335.45478,-111.37968 c 6.175,4.79093 9.68447,12.343455 12.96058,19.238383 4.10147,8.267856 6.52087,17.212241 8.96229,26.073276 1.26803,5.117675 2.27509,10.279778 2.88889,15.515446 0.49394,4.181771 1.36081,8.297397 2.22644,12.412926 0.10907,0.669755 0.21815,1.339509 0.32723,2.009264 0,0 -18.47615,9.784042 -18.47615,9.784042 l 0,0 c -0.0996,-0.642747 -0.19923,-1.285494 -0.29884,-1.928241 -0.80457,-4.203306 -1.7356,-8.374697 -2.23247,-12.63266 -0.47183,-5.186175 -1.44687,-10.275545 -2.54415,-15.362869 -2.03388,-8.876064 -4.01359,-17.84075 -8.23507,-25.994866 -3.28624,-6.532714 -6.7192,-13.849957 -13.35092,-17.61577 0,0 17.77217,-11.498931 17.77217,-11.498931 z"
       inkscape:connector-curvature="0"
       transform="translate(-40.5,551.86365)" />
    <path
       style="fill:#ee0000;fill-opacity:0.55288462999999999;stroke:none;stroke-width:1;stroke-miterlimit:4;stroke-opacity:1;stroke-dasharray:4, 4;stroke-dashoffset:0"
       id="path4278"
       d="m 715.78734,475.21306 c 0.34201,-4.46976 1.08577,-8.80477 3.11746,-12.82359 6.56593,-8.89649 17.50585,-13.75596 28.28895,-14.24013 5.6037,-0.602 10.78154,0.84534 15.95899,2.82402 5.60714,2.21937 10.49414,5.79322 15.60087,8.92281 3.49872,2.02486 4.92271,4.98472 5.54917,8.82495 0.26532,3.05715 0.75564,6.5529 -0.88742,9.35834 -0.48708,0.83165 -1.16618,1.5348 -1.74926,2.3022 -4.23596,4.40721 -9.45646,7.5959 -14.71737,10.61967 -6.94587,3.99222 -13.91233,7.9485 -20.8685,11.92275 -5.28409,2.59728 -10.30407,5.54973 -16.0695,6.91363 -1.79572,0.51589 -3.69199,0.37392 -5.51595,0.64083 -0.47076,0.0689 -1.79764,0.58015 -1.38577,0.34197 18.64913,-10.78455 22.09764,-14.21357 17.12583,-9.33713 3.78404,4.27254 8.90858,7.16065 13.81092,9.97066 5.15065,2.96448 10.54417,5.43522 16.01243,7.74363 6.10009,2.23602 12.58853,3.16739 19.01435,3.91137 6.91912,0.47004 13.78339,0.75331 20.61189,2.02115 3.84374,0.86599 7.7403,1.31513 11.6695,1.49858 0,0 -17.0448,12.22109 -17.0448,12.22109 l 0,0 c -3.91802,-0.30881 -7.78111,-0.92411 -11.60046,-1.86655 -6.71378,-1.30613 -13.51343,-1.36205 -20.30313,-2.06169 -6.62385,-0.7966 -13.30705,-1.71417 -19.52655,-4.25882 -5.53636,-2.32098 -10.91852,-4.98539 -16.10437,-8.0151 -5.38685,-3.26422 -11.15082,-6.45365 -15.24209,-11.32972 -0.18619,-0.6661 -1.12095,-1.5957 -0.55857,-1.99831 19.19803,-13.74389 13.16417,-9.55567 25.59527,-12.18688 5.43379,-1.63475 10.3305,-4.51538 15.40085,-7.01052 -4.6669,2.72766 -9.33501,5.45324 -14.00069,8.18298 -1.19339,0.69822 2.39644,-1.37997 3.5838,-2.08838 0.14315,-0.0854 5.8834,-3.58817 6.25794,-3.85639 0.45472,-0.32564 4.19934,-3.49748 4.74067,-3.95407 0.61271,-0.54866 1.30864,-1.01662 1.83814,-1.64596 1.91314,-2.27392 1.58739,-5.52016 1.37174,-8.23659 -0.49405,-3.53762 -1.40198,-5.3859 -4.52575,-7.36708 -4.84236,-3.24473 -9.59387,-6.70786 -15.14403,-8.67655 -5.10445,-1.76514 -10.26759,-2.58022 -15.67118,-1.94982 -1.62943,0.17457 -2.59165,0.21675 -4.1673,0.61315 -0.59738,0.15029 -2.28321,0.88765 -1.76061,0.56155 5.35001,-3.33835 10.88818,-6.36608 16.28658,-9.6256 0.47599,-0.28741 -1.04942,0.39609 -1.51191,0.70475 -0.46357,0.3094 -0.82279,0.75201 -1.23419,1.12801 -2.48499,3.49161 -3.30991,7.44197 -3.39205,11.69425 0,0 -18.8539,9.60654 -18.8539,9.60654 z"
       inkscape:connector-curvature="0" />
    <path
       style="fill:#ee0000;fill-opacity:0.55288462999999999;stroke:none;stroke-width:1;stroke-miterlimit:4;stroke-opacity:1;stroke-dasharray:4, 4;stroke-dashoffset:0"
       id="path4290"
       d="m 686.56981,-98.492267 c -0.28924,6.551177 -0.34254,13.113594 -0.39342,19.670728 -0.13415,9.819004 -0.0676,19.638584 -0.0341,29.458021 0.0424,6.869438 0.13631,13.738457 0.25379,20.606988 0.0183,4.571105 0.0319,9.141578 0.0342,13.712583 -0.009,0.826201 -0.0188,1.652402 -0.0282,2.478603 0,0 -18.51835,9.4355684 -18.51835,9.4355684 l 0,0 c -0.009,-0.8166184 -0.0188,-1.6332367 -0.0282,-2.4498551 0.002,-4.5826163 0.0161,-9.1647123 0.0342,-13.7474313 0.11692,-6.954756 0.21102,-13.90998 0.2538,-20.865619 0.0333,-9.807836 0.10038,-19.615828 -0.0341,-29.423224 -0.0502,-6.423416 -0.0997,-12.852716 -0.39341,-19.269819 0,0 18.8539,-9.606543 18.8539,-9.606543 z"
       inkscape:connector-curvature="0"
       transform="translate(-40.5,551.86365)" />
    <path
       style="fill:#ee0000;fill-opacity:0.55288462999999999;stroke:none;stroke-width:1;stroke-miterlimit:4;stroke-opacity:1;stroke-dasharray:4, 4;stroke-dashoffset:0"
       id="path4292"
       d="m 670.72643,-82.550315 c 4.22986,-10.459661 14.85896,-15.100135 25.60358,-18.740595 3.886,-1.12416 7.94879,-1.02577 11.95211,-1.05158 4.42909,0.014 8.85826,0.008 13.28712,0.0587 5.53516,-0.29512 9.02522,0.20721 13.73119,3.207422 3.50719,2.868226 5.81896,5.167242 7.34431,9.479909 1.6619,5.67341 0.0128,9.429605 -3.21859,14.075137 -0.78961,0.836555 -1.50015,1.755559 -2.36885,2.509665 -0.96094,0.834173 -1.99636,1.592909 -3.09561,2.233933 -12.51164,7.29617 -20.19842,12.001751 -32.46576,16.580454 -5.13455,1.699545 -10.45083,2.691897 -15.696,3.954643 -0.70582,0.15921 -1.45096,0.196008 -2.11746,0.477628 -0.51466,0.217459 -1.84183,1.260031 -1.35332,0.988903 5.73805,-3.184662 11.35,-6.594667 17.11229,-9.735253 0.16811,-0.09162 -0.27214,0.344892 -0.22209,0.529692 0.11095,0.409684 0.37922,0.770729 0.66037,1.088699 0.50437,0.570421 1.11687,1.035226 1.6753,1.552839 6.97224,5.177827 14.00706,10.279656 21.11859,15.265983 5.23781,3.612885 10.89975,6.532228 16.33612,9.828099 2.08037,1.099848 4.15177,2.190433 6.17243,3.396346 0,0 -17.50459,11.331716 -17.50459,11.331716 l 0,0 c -2.01011,-1.1995 -4.08371,-2.270235 -6.09181,-3.473615 -5.3985,-3.320071 -10.93046,-6.440045 -16.05279,-10.185821 -7.12791,-5.19056 -14.24637,-10.393061 -21.62026,-15.233813 -0.37628,-0.335907 -5.29062,-4.785311 -3.89093,-5.840904 8.87658,-6.694377 13.54125,-10.740259 22.35507,-12.614838 5.12136,-1.116588 10.2648,-2.21968 15.22337,-3.946335 3.23869,-1.245965 3.91348,-1.456601 7.18339,-2.929429 1.33497,-0.601298 5.20248,-2.667983 3.97339,-1.872337 -4.51394,2.922078 -9.24574,5.493128 -13.85207,8.267261 -1.03931,0.625915 2.1629,-1.117844 3.1506,-1.822383 0.87433,-0.623666 1.6046,-1.427895 2.4069,-2.141842 3.23017,-4.272004 5.28797,-6.592365 3.81425,-12.161452 -1.13086,-3.571252 -3.47051,-6.098966 -6.50647,-8.273117 -4.51212,-2.586632 -7.96451,-2.444696 -13.05309,-2.304186 -4.42751,0.01255 -8.85502,-0.07707 -13.28233,-0.01111 -3.89777,0.09706 -7.86354,0.214806 -11.52566,1.709906 -7.23819,3.558852 -3.13587,1.597249 14.27683,-8.602113 0.55869,-0.327246 -1.15969,0.605416 -1.64267,1.036641 -0.68914,0.615302 -1.62933,2.193893 -2.02194,3.010524 -0.22643,0.470983 -0.37617,0.975129 -0.56426,1.462694 0,0 -19.23066,8.893902 -19.23066,8.893902 z"
       inkscape:connector-curvature="0"
       transform="translate(-40.5,551.86365)" />
  </g>
</svg>
